# xmcd
#
# Track frame offsets:
#	150
#	12129
#	26533
#	42841
#	57761
#	68406
#	82872
#	102132
#	117238
#	133310
#	148805
#	162594
#	177561
#	190347
#	203695
#
# Disc length: 2955 seconds
#
# Revision: 0
# Processed by: cddbd v1.5.2PL0 Copyright (c) Steve Scherf et al.
# Submitted via: audiograbber 1.83.01
#
DISCID=ca0b890f
DTITLE=Various Artist - The Real... Country Collection [CD3)
DYEAR=2016
DGENRE=Country
TTITLE0=Johnny Paycheck - Take This Job And Shove It
TTITLE1=Michael Nesmith and the First National Band - Silver Moon
TTITLE2=The Charlie Daniels Band - The Devil Went Down To Georgia
TTITLE3=George Jones - He Stopped Loving Her Today 
TTITLE4=Jerry Reed - When You're Hot, You're Hot
TTITLE5=Ricky Skaggs - Highway 40 Blues 
TTITLE6=Merle Haggard - Are The Good Times Really Over
TTITLE7=Alabama - Love In The First Degree 
TTITLE8=Willie Nelson - Always On My Mind
TTITLE9=Rosanna Cash and Bobby Bare - No Memories Hangin' Round 
TTITLE10=The Highwaymen - Highwayman  
TTITLE11=Rodney Crowell - I Couldn't Leave You If I Tried 
TTITLE12=Clint Black - Killin' Time 
TTITLE13=Don Williams - One Good Well 
TTITLE14=Pam Tillis - Maybe It Was Memphis
EXTD=
EXTT0=
EXTT1=
EXTT2=
EXTT3=
EXTT4=
EXTT5=
EXTT6=
EXTT7=
EXTT8=
EXTT9=
EXTT10=
EXTT11=
EXTT12=
EXTT13=
EXTT14=
PLAYORDER=
